HIERARCHY
ROOT joint_0
{
	OFFSET 0.000000 0.000000 0.000000
	CHANNELS 6 Xposition Yposition Zposition Zrotation Yrotation Xrotation 
	JOINT joint_1
	{
		OFFSET 0.000000 0.000000 0.000000
		CHANNELS 3 Zrotation Yrotation Xrotation
		JOINT joint_2
		{
			OFFSET 1.363060 -1.794630 0.839290
			CHANNELS 3 Zrotation Yrotation Xrotation
			JOINT joint_3
			{
				OFFSET 2.448110 -6.726130 0.000000
				CHANNELS 3 Zrotation Yrotation Xrotation
				JOINT joint_4
				{
					OFFSET 2.562200 -7.039590 0.000000
					CHANNELS 3 Zrotation Yrotation Xrotation
					JOINT joint_5
					{
						OFFSET 0.157640 -0.433110 2.322550
						CHANNELS 3 Zrotation Yrotation Xrotation
						End Site
						{
							OFFSET 0.000000 0.000000 0.000000
						}
					}
				}
			}
		}
	}
	JOINT joint_6
	{
		OFFSET 0.000000 0.000000 0.000000
		CHANNELS 3 Zrotation Yrotation Xrotation
		JOINT joint_7
		{
			OFFSET -1.305520 -1.794630 0.839290
			CHANNELS 3 Zrotation Yrotation Xrotation
			JOINT joint_8
			{
				OFFSET -2.542530 -6.985550 0.000000
				CHANNELS 3 Zrotation Yrotation Xrotation
				JOINT joint_9
				{
					OFFSET -2.568260 -7.056230 0.000000
					CHANNELS 3 Zrotation Yrotation Xrotation
					JOINT joint_10
					{
						OFFSET -0.164730 -0.452590 2.363150
						CHANNELS 3 Zrotation Yrotation Xrotation
						End Site
						{
							OFFSET 0.000000 0.000000 0.000000
						}
					}
				}
			}
		}
	}
	JOINT joint_11
	{
		OFFSET 0.000000 0.000000 0.000000
		CHANNELS 3 Zrotation Yrotation Xrotation
		JOINT joint_12
		{
			OFFSET 0.028270 2.035590 -0.193380
			CHANNELS 3 Zrotation Yrotation Xrotation
			JOINT joint_13
			{
				OFFSET 0.056720 2.048850 -0.042750
				CHANNELS 3 Zrotation Yrotation Xrotation
				JOINT joint_14
				{
					OFFSET 0.000000 0.000000 0.000000
					CHANNELS 3 Zrotation Yrotation Xrotation
					JOINT joint_15
					{
						OFFSET -0.054170 1.746240 0.172020
						CHANNELS 3 Zrotation Yrotation Xrotation
						JOINT joint_16
						{
							OFFSET 0.104070 1.761360 -0.123970
							CHANNELS 3 Zrotation Yrotation Xrotation
							End Site
							{
								OFFSET 0.000000 0.000000 0.000000
							}
						}
					}
				}
				JOINT joint_17
				{
					OFFSET 0.000000 0.000000 0.000000
					CHANNELS 3 Zrotation Yrotation Xrotation
					JOINT joint_18
					{
						OFFSET 3.362410 1.200890 -0.311210
						CHANNELS 3 Zrotation Yrotation Xrotation
						JOINT joint_19
						{
							OFFSET 4.983000 -0.000000 -0.000000
							CHANNELS 3 Zrotation Yrotation Xrotation
							JOINT joint_20
							{
								OFFSET 3.483560 -0.000000 -0.000000
								CHANNELS 3 Zrotation Yrotation Xrotation
								JOINT joint_21
								{
									OFFSET 0.000000 0.000000 0.000000
									CHANNELS 3 Zrotation Yrotation Xrotation
									JOINT joint_22
									{
										OFFSET 0.715260 -0.000000 -0.000000
										CHANNELS 3 Zrotation Yrotation Xrotation
										End Site
										{
											OFFSET 0.000000 0.000000 0.000000
										}
									}
								}
								JOINT joint_23
								{
									OFFSET 0.000000 0.000000 0.000000
									CHANNELS 3 Zrotation Yrotation Xrotation
									End Site
									{
										OFFSET 0.000000 0.000000 0.000000
									}
								}
							}
						}
					}
				}
				JOINT joint_24
				{
					OFFSET 0.000000 0.000000 0.000000
					CHANNELS 3 Zrotation Yrotation Xrotation
					JOINT joint_25
					{
						OFFSET -3.136600 1.374050 -0.404650
						CHANNELS 3 Zrotation Yrotation Xrotation
						JOINT joint_26
						{
							OFFSET -5.241900 -0.000000 -0.000000
							CHANNELS 3 Zrotation Yrotation Xrotation
							JOINT joint_27
							{
								OFFSET -3.444170 -0.000000 -0.000000
								CHANNELS 3 Zrotation Yrotation Xrotation
								JOINT joint_28
								{
									OFFSET 0.000000 0.000000 0.000000
									CHANNELS 3 Zrotation Yrotation Xrotation
									JOINT joint_29
									{
										OFFSET -0.622530 -0.000000 -0.000000
										CHANNELS 3 Zrotation Yrotation Xrotation
										End Site
										{
											OFFSET 0.000000 0.000000 0.000000
										}
									}
								}
								JOINT joint_30
								{
									OFFSET 0.000000 0.000000 0.000000
									CHANNELS 3 Zrotation Yrotation Xrotation
									End Site
									{
										OFFSET 0.000000 0.000000 0.000000
									}
								}
							}
						}
					}
				}
			}
		}
	}
}
MOTION
Frames: 5
Frame Time: 0.041667
9.084300 17.963200 31.786200 -174.132000 0.969800 174.379000 0.000000 0.000000 0.000000 -10.282700 -1.420500 -4.037600 1.295200 7.210500 20.340400 0.319000 -1.312800 -10.289100 0.034600 -1.201000 -3.302100 0.000000 0.000000 0.000000 22.219900 2.945000 -2.739700 -1.462500 -7.642900 21.634700 -0.236300 -4.924000 -12.322500 -0.144900 -2.453200 6.760000 2.833200 0.383400 11.553500 3.680700 1.376200 -0.089900 2.038200 0.743400 -6.623300 -6.896000 -4.028900 -8.518500 5.429000 -5.684300 14.239500 2.385100 -2.875400 6.059700 0.000000 0.000000 0.000000 -91.340400 11.487300 34.741400 30.020800 -40.911200 -11.423300 0.000000 0.000000 -5.675200 21.338200 -13.487100 -5.205800 -7.125000 0.000000 0.000000 -4.138700 15.565800 2.883900 0.000000 0.000000 0.000000 84.679100 -4.398900 22.601500 -19.344500 29.844500 -5.201200 0.000000 0.000000 -15.816000 -23.529700 -23.687900 9.922700 7.125000 0.000000 0.000000 6.170100 -55.445100 -1.586300 
9.085500 17.980400 31.777500 -174.393000 1.235700 174.702000 0.000000 0.000000 0.000000 -10.564200 -1.393300 -4.056600 1.234300 7.045300 19.849800 0.304800 -0.960500 -10.134100 0.031800 -1.151100 -3.164600 0.000000 0.000000 0.000000 21.949100 3.277600 -2.973700 -1.458200 -7.632300 21.602700 -0.241900 -4.818900 -12.324100 -0.157900 -2.560600 7.057600 2.569800 0.490600 11.538500 3.618800 1.467700 -0.159200 2.106500 0.789500 -6.693900 -6.866500 -4.041900 -9.002500 5.377500 -5.660000 14.386800 2.356800 -2.852700 6.186100 0.000000 0.000000 0.000000 -91.134500 11.305500 35.588700 30.776300 -41.549600 -11.921200 0.000000 0.000000 -4.916900 21.766200 -13.781700 -5.433600 -7.125000 0.000000 0.000000 -3.858400 15.208100 2.717400 0.000000 0.000000 0.000000 84.551300 -3.915800 22.849500 -19.803200 30.404500 -5.431400 0.000000 0.000000 -15.669100 -22.878700 -24.674200 9.990600 7.125000 0.000000 0.000000 7.246800 -56.335300 -2.021800 
9.085800 17.986200 31.769500 -174.652000 1.381800 174.936000 0.000000 0.000000 0.000000 -10.836500 -1.318100 -4.050500 1.187800 6.916300 19.467600 0.300300 -0.841400 -10.088900 0.026300 -1.046000 -2.875400 0.000000 0.000000 0.000000 21.664000 3.461100 -3.173200 -1.459000 -7.634300 21.608600 -0.249400 -4.716800 -12.361800 -0.164700 -2.614500 7.207300 2.388100 0.589800 11.544400 3.506400 1.555200 -0.169700 2.075500 0.830800 -6.710600 -6.753300 -4.072100 -9.221100 5.332500 -5.667500 14.224000 2.320400 -2.841300 6.168700 0.000000 0.000000 0.000000 -90.788400 10.973300 36.602300 31.379600 -42.046900 -12.323300 0.000000 0.000000 -4.316800 22.256700 -14.041500 -5.670500 -7.125000 0.000000 0.000000 -3.536000 14.877900 2.514400 0.000000 0.000000 0.000000 84.497900 -3.314600 22.921800 -20.212100 30.897100 -5.639900 0.000000 0.000000 -15.827200 -22.874600 -24.953300 10.092300 7.125000 0.000000 0.000000 7.367500 -56.623300 -2.107200 
9.082400 17.988600 31.764700 -174.828000 1.492600 175.120000 0.000000 0.000000 0.000000 -11.047100 -1.444900 -3.945400 1.149300 6.807000 19.144900 0.300500 -0.591900 -10.163000 0.021800 -0.952300 -2.617500 0.000000 0.000000 0.000000 21.446600 3.569000 -3.414000 -1.467200 -7.654700 21.670100 -0.244600 -4.670700 -12.242700 -0.141800 -2.426700 6.686500 2.333300 0.633500 11.509200 3.428900 1.591300 -0.124000 2.018500 0.847000 -6.641500 -6.641300 -4.038900 -9.074500 5.161000 -5.559200 13.641100 2.262900 -2.783300 5.945500 0.000000 0.000000 0.000000 -90.543800 10.644500 37.388600 32.007600 -42.553200 -12.746000 0.000000 0.000000 -3.530900 22.490800 -14.173100 -5.788600 -7.125000 0.000000 0.000000 -3.383400 14.711300 2.417500 0.000000 0.000000 0.000000 84.374200 -2.654600 23.096100 -20.551700 31.301300 -5.815300 0.000000 0.000000 -16.005200 -22.633700 -24.547500 9.827300 7.125000 0.000000 0.000000 7.455200 -56.152600 -2.047300 
9.077300 17.990900 31.761400 -174.989000 1.516700 175.285000 0.000000 0.000000 0.000000 -11.231700 -1.466500 -3.966100 1.120300 6.723500 18.898800 0.301500 -0.447000 -10.222600 0.027700 -1.074300 -2.953200 0.000000 0.000000 0.000000 21.227900 3.611500 -3.682300 -1.480300 -7.687500 21.768800 -0.241700 -4.594500 -12.128200 -0.128400 -2.309700 6.362300 2.258800 0.632800 11.510600 3.390100 1.573600 -0.041800 2.022300 0.840300 -6.554900 -6.615600 -4.020400 -9.307800 4.954200 -5.444300 13.327800 2.201000 -2.723600 5.874300 0.000000 0.000000 0.000000 -90.349300 10.155700 38.088600 32.654900 -43.063100 -13.185900 0.000000 0.000000 -2.827300 22.700700 -13.833400 -5.711800 -7.125000 0.000000 0.000000 -3.221600 15.051300 2.278200 0.000000 0.000000 0.000000 84.157600 -1.951800 23.467900 -20.876500 31.683900 -5.984900 0.000000 0.000000 -16.267000 -22.649000 -24.159100 9.691100 7.125000 0.000000 0.000000 7.281500 -55.753600 -1.928700 
